<?xml version="1.0" encoding="utf-8"?>

<!-- Generator: Adobe Illustrator 27.0.0, SVG Export Plug-In . SVG Version: 6.00 Build 0)  -->
<svg version="1.1" id="Layer_1" xmlns="http://www.w3.org/2000/svg" xmlns:xlink="http://www.w3.org/1999/xlink" x="0px" y="0px"
	 viewBox="0 0 80.8 80.2" style="enable-background:new 0 0 80.8 80.2;" xml:space="preserve" > 
<g>
	<g>
		<circle cx="61" cy="18" r="1.6"/>
		<polygon points="80.2,1.2 70.4,9.5 80.2,5.2 		"/>
		<polygon points="73.2,0.2 69.4,8.7 77.2,0.2 		"/>
		<path d="M75.6,10.2l-10.1,3.3c1.2,1.2,1.9,2.9,1.9,4.5v22.2c0,7-2.7,13.9-8,19.2c-5.3,5.3-12.3,8-19.2,8c-6,0-11.9-2-16.8-5.8
			l2.3-2.3c9.4,7.2,22.9,6.5,31.5-2.1c4.7-4.7,7-10.8,7-17c0-0.9-0.7-1.6-1.6-1.6S61,39.3,61,40.2c0,5.3-2,10.6-6.1,14.7
			c-7.4,7.4-18.8,8-27,2.1l23.7-23.7c3.7-3.7,3.7-9.8,0-13.6c-0.2-0.2-0.5-0.4-0.7-0.7l0,0l5.6-5.6c1.2-1.2,2.9-1.9,4.5-1.9
			s3.3,0.6,4.5,1.9l3.2-9.9l-5.2,5.2c-0.8-0.2-1.6-0.3-2.5-0.3c-2.5,0-4.9,0.9-6.8,2.8L45.4,20c0.5,0.1,1.1,0.3,1.6,0.5
			c0.9,0.3,1.7,0.8,2.4,1.5c2.5,2.5,2.5,6.6,0,9.1L0.2,80.2h4.5l16.4-16.4l0,0c4.5,3.6,10,6,16,6.6l-4,9.8h3.5l4-9.6
			c1.2,0,2.4-0.1,3.6-0.2L40,80.2h3.5l4.4-10.6c13-3.3,22.8-15.2,22.8-29.4l0,0V18c0-0.8-0.1-1.7-0.3-2.5l0.9-0.9L75.6,10.2z"/>
	</g>
</g> 
</svg>
