<?xml version="1.0" encoding="utf-8"?>
<!-- Generator: Adobe Illustrator 27.0.0, SVG Export Plug-In . SVG Version: 6.00 Build 0)  -->
<svg version="1.1" id="Layer_1" xmlns="http://www.w3.org/2000/svg" xmlns:xlink="http://www.w3.org/1999/xlink" x="0px" y="0px"
	 viewBox="0 0 270 269" style="enable-background:new 0 0 270 269;" xml:space="preserve">
<style type="text/css">
	.st0{fill:#FFF519;}
</style>
<g>
	<g>
		<circle class="st0" cx="200" cy="63.7" r="5"/>
		<polygon class="st0" points="260,11 229.4,37.2 260,23.5 		"/>
		<polygon class="st0" points="238,8 226.3,34.7 250.5,8 		"/>
		<path class="st0" d="M245.6,39.3l-31.5,10.3c3.9,3.9,5.9,9,5.9,14.1V133c0,21.8-8.3,43.5-24.9,60.1C178.5,209.7,156.8,218,135,218
			c-18.6,0-37.2-6.1-52.6-18.3l7.1-7.1c29.4,22.5,71.6,20.3,98.5-6.6c14.6-14.6,22-33.8,22-53c0-2.8-2.2-5-5-5c-2.8,0-5,2.2-5,5
			c0,16.6-6.3,33.3-19,46c-23,23-58.9,25.2-84.3,6.5l73.9-73.9c11.7-11.7,11.7-30.7,0-42.4c-0.7-0.7-1.5-1.4-2.3-2l0,0l17.5-17.5
			c3.9-3.9,9-5.9,14.1-5.9c5.1,0,10.2,2,14.1,5.9l9.8-31.1l-16.2,16.2c-2.5-0.7-5.1-1-7.7-1c-7.7,0-15.4,2.9-21.2,8.8L151.2,70
			c1.7,0.4,3.3,0.9,4.9,1.5c2.7,1,5.2,2.5,7.4,4.7c7.8,7.8,7.8,20.5,0,28.3L10,258h14.1l51.1-51.1l0,0
			c13.9,11.3,31.1,18.7,49.9,20.6L112.6,258h10.8l12.4-30c3.8,0,7.5-0.3,11.1-0.7L134.2,258H145l13.7-33c41-10.5,71.3-47.7,71.3-92
			l0,0V63.7c0-2.6-0.4-5.2-1-7.7l2.9-2.9L245.6,39.3z"/>
	</g>
	<g>
		<g>
			<path class="st0" d="M44.5,180.2l2.4-1.4l1.9,3.2l9.9-5.9l1.8,3l-9.9,5.9l1.9,3.2l-2.4,1.4L44.5,180.2z"/>
			<path class="st0" d="M38.4,166.1l13.2-5.4l1.3,3.2l-5.4,2.2l2.1,5l5.4-2.2l1.3,3.2l-13.2,5.4l-1.3-3.2l5.2-2.1l-2.1-5l-5.2,2.1
				L38.4,166.1z"/>
			<path class="st0" d="M39,157.6l2.8-0.7l-1.1-4.5l2.6-0.6l1.1,4.5l3-0.7l-1.3-5.1l2.7-0.7l2.1,8.5l-13.8,3.4l-2.1-8.5l2.7-0.7
				L39,157.6z"/>
			<path class="st0" d="M44.8,134.7l0.3,5.3l2.6,0.7l0.2,3.6l-14.5-4.5l-0.2-4l14-5.8l0.2,3.7L44.8,134.7z M42.2,135.7l-5.1,2
				l5.3,1.5L42.2,135.7z"/>
			<path class="st0" d="M38.6,118.8c-0.5,0.2-0.9,0.5-1.2,1c-0.3,0.4-0.5,1-0.6,1.6c-0.1,1.1,0.1,2.1,0.8,2.8
				c0.7,0.8,1.6,1.2,2.8,1.3c1.3,0.1,2.4-0.1,3.2-0.7c0.8-0.6,1.3-1.6,1.4-2.8c0.1-0.8,0-1.6-0.4-2.2c-0.4-0.6-0.9-1.1-1.7-1.5
				l-0.5,4.4l-2.5-0.3l0.9-7.5l3.2,0.4c0.8,0.4,1.6,0.9,2.2,1.6c0.7,0.7,1.2,1.5,1.5,2.5c0.3,1,0.5,2.1,0.3,3.3
				c-0.2,1.4-0.6,2.6-1.3,3.6c-0.7,1-1.7,1.8-2.8,2.3s-2.4,0.6-3.8,0.5c-1.4-0.2-2.6-0.6-3.6-1.3c-1-0.7-1.8-1.7-2.3-2.8
				c-0.5-1.2-0.6-2.4-0.5-3.8c0.2-1.7,0.8-3.1,1.7-4.1c1-1.1,2.2-1.7,3.7-1.9L38.6,118.8z"/>
			<path class="st0" d="M39.2,107.6l2.8,0.8l1.2-4.5l2.6,0.7l-1.2,4.5l3,0.8l1.4-5.1l2.7,0.7l-2.3,8.4l-13.7-3.7l2.3-8.4l2.7,0.7
				L39.2,107.6z"/>
			<path class="st0" d="M57.4,91.7L56,94.8l-10.4,1.7l8,3.6l-1.4,3.2l-13-5.8l1.4-3.2l10.4-1.7L43,89l1.4-3.2L57.4,91.7z"/>
			<path class="st0" d="M49.8,83.1c-0.6-1.1-0.8-2.3-0.7-3.6c0.1-1.2,0.5-2.4,1.3-3.6c0.9-1.4,2.1-2.4,3.5-2.9
				c1.4-0.5,2.9-0.5,4.4,0l-2.1,3.2c-0.7-0.1-1.3,0-1.8,0.2c-0.5,0.3-1,0.7-1.4,1.2c-0.6,0.9-0.8,1.8-0.5,2.8c0.2,1,0.9,1.8,1.9,2.5
				c1,0.7,2,1,3,0.8c1-0.1,1.8-0.6,2.4-1.5c0.4-0.5,0.6-1.1,0.6-1.7c0-0.6-0.1-1.2-0.5-1.8l2.1-3.2c1.1,1.2,1.6,2.5,1.7,4
				c0.1,1.5-0.4,2.9-1.3,4.3c-0.8,1.1-1.7,2-2.8,2.6c-1.1,0.6-2.3,0.8-3.6,0.7c-1.2-0.1-2.5-0.6-3.6-1.3
				C51.2,85.2,50.3,84.2,49.8,83.1z"/>
			<path class="st0" d="M64.3,59.3L68,69.4l3.5,3.2l-2.3,2.6L65.7,72l-10.4-2.8l2.7-2.9l6.3,2l-2.6-6L64.3,59.3z"/>
			<path class="st0" d="M81,62.9c-1.3,0.1-2.5-0.1-3.7-0.6c-1.2-0.5-2.2-1.4-3-2.5c-0.8-1.1-1.3-2.3-1.4-3.6
				c-0.1-1.3,0.1-2.5,0.7-3.7c0.6-1.2,1.4-2.1,2.5-2.9c1.1-0.8,2.3-1.2,3.5-1.4c1.3-0.1,2.5,0.1,3.7,0.6c1.2,0.5,2.1,1.4,3,2.5
				c0.8,1.1,1.3,2.3,1.4,3.6c0.1,1.3-0.1,2.5-0.6,3.7c-0.5,1.1-1.4,2.1-2.5,2.9C83.5,62.3,82.3,62.7,81,62.9z M84.3,56.4
				c0.1-1-0.2-2-0.9-3c-0.7-1-1.6-1.6-2.6-1.9c-1-0.2-1.9,0-2.9,0.7c-0.9,0.7-1.5,1.5-1.6,2.5c-0.1,1,0.2,2,0.9,3.1
				c0.7,1,1.6,1.7,2.6,1.9c1,0.2,2,0,2.9-0.7C83.6,58.3,84.2,57.4,84.3,56.4z"/>
			<path class="st0" d="M94.1,39.5l1.2,2.5l-5.2,2.6l1.3,2.7l3.9-1.9l1.2,2.4l-3.9,1.9l2.6,5.2l-3.1,1.5l-6.3-12.7L94.1,39.5z"/>
			<path class="st0" d="M118.3,46.7l-3.3,0.9l-7.9-7l2.3,8.5L106,50l-3.7-13.7l3.3-0.9l7.9,7l-2.3-8.5l3.3-0.9L118.3,46.7z"/>
			<path class="st0" d="M123,34.6l0.3,2.9l4.6-0.5l0.3,2.7l-4.6,0.5l0.3,3.1l5.2-0.6l0.3,2.8l-8.7,1l-1.6-14.1l8.7-1l0.3,2.8
				L123,34.6z"/>
			<path class="st0" d="M140.3,45.5l-2.8-4.4l-2.7,4.3l-3.9-0.1l4.8-7.1l-4.5-7.1l4,0.1l2.7,4.4l2.6-4.2l3.9,0.1l-4.7,7l4.5,7.2
				L140.3,45.5z"/>
			<path class="st0" d="M158.1,33.6l-0.5,2.7l-3.7-0.7l-2,11.3l-3.4-0.6l2-11.3l-3.7-0.7l0.5-2.7L158.1,33.6z"/>
		</g>
		<g>
			<path class="st0" d="M75.4,178.5C65.7,165.9,60,150.1,60,133c0-41.4,33.6-75,75-75c4.4,0,8.8,0.4,13,1.1l-9,9
				c-1.3-0.1-2.7-0.1-4-0.1c-35.9,0-65,29.1-65,65c0,14.3,4.6,27.6,12.5,38.3L75.4,178.5z"/>
			<g>
				<path class="st0" d="M46.9,206.9C30.1,186.9,20,161.2,20,133C20,69.5,71.5,18,135,18c16.7,0,32.6,3.6,47,10
					c4.4-2.2,9.1-3.6,14.1-4.1C178,13.8,157.2,8,135,8C66,8,10,64,10,133c0,30.9,11.2,59.2,29.8,81L46.9,206.9z"/>
				<g>
					<path class="st0" d="M69.1,227.2l-7.2,7.2c12.3,8.9,26.4,15.6,41.5,19.6l3.9-9.3C93.4,241.2,80.5,235.2,69.1,227.2z"/>
				</g>
				<g>
					<path class="st0" d="M240,65.2V86c6.4,14.3,10,30.2,10,47c0,54.5-37.9,100.1-88.8,112l-4.6,11.1C215.3,245.9,260,194.7,260,133
						C260,108,252.7,84.7,240,65.2z"/>
				</g>
			</g>
		</g>
	</g>
</g>
</svg>
